<svg xmlns="http://www.w3.org/2000/svg" width="279.521" height="55.336" viewBox="0 0 279.52136 55.335999"><path fill="#00addc" d="M175.895 40.502l-2.168-1.252-20.062 11.582-20.06-11.582-2.168 1.252 22.229 12.834z"/><path fill="#00b9e1" d="M175.895 36.836l-2.168-1.254-20.06 11.584-20.061-11.584-2.17 1.254 22.229 12.834z"/><path fill="#00c4e6" d="M175.895 33.168l-2.168-1.252L153.666 43.5l-20.06-11.584-2.17 1.252 22.23 12.834z"/><path fill="#00d0eb" d="M175.895 29.502l-2.168-1.252-20.061 11.582-20.06-11.582-2.17 1.252 22.23 12.834z"/><path fill="#00dcf0" d="M175.895 25.834l-2.168-1.252-20.06 11.584-20.061-11.584-2.17 1.252 22.23 12.836z"/><path fill="#00e8f5" d="M153.667 35.002l22.228-12.834-2.167-1.252-20.062 11.582-20.06-11.582-2.17 1.252z"/><path fill="#00f3fa" d="M175.895 18.501l-2.168-1.252-20.061 11.583-20.06-11.583-2.17 1.252 22.23 12.835z"/><path fill="#0ff" d="M153.666 2l22.229 12.834-22.23 12.834-22.228-12.834z"/><g stroke-miterlimit="10" fill="none" stroke="#29abe2" stroke-width="1.5" stroke-linecap="round"><path d="M187.58 14.833v25.669m18.41-25.669v25.669m11.768-25.669v25.669M205.99 27.668h-18.41"/><path stroke-linejoin="round" d="M249.14 14.833l-11.143 25.669-11.144-25.669"/><path d="M271.76 14.833h-15.437v25.669h15.438m-15.438-12.834h11.984"/></g><path stroke-miterlimit="10" d="M7.76 30.027h7.98a7.598 7.598 0 0 0 0-15.195H7.76v25.669" fill="none" stroke="#29abe2" stroke-width="1.5" stroke-linecap="round"/><g stroke-miterlimit="10" fill="none" stroke="#29abe2" stroke-width="1.5" stroke-linecap="round"><path d="M43.934 32.48H28.906"/><path stroke-linejoin="round" d="M25.423 40.502l11.144-25.669L47.71 40.502"/></g><path stroke-miterlimit="10" d="M56.35 30.027h7.98a7.598 7.598 0 0 0 0-15.195h-7.98v25.669m39.379-25.668H80.29v25.669h15.438M80.29 27.668h11.985m12.334 2.359h7.98a7.598 7.598 0 0 0 0-15.195h-7.98v25.669m15.141.001l-7.16-10.475" fill="none" stroke="#29abe2" stroke-width="1.5" stroke-linecap="round"/></svg>